<svg width="26" height="30" viewBox="0 0 26 30" fill="none" xmlns="http://www.w3.org/2000/svg">
<path fill-rule="evenodd" clip-rule="evenodd" d="M16.5727 0C16.6375 0 16.7011 0.00546095 16.763 0.0159478L16.9697 0.0172159C17.2778 0.0172159 17.5723 0.142559 17.7867 0.364553L25.4357 8.33369C25.638 8.5436 25.7515 8.826 25.7515 9.11746V22.9596C25.7785 26.7486 22.8276 29.8445 19.0326 29.9985L6.92259 30H6.75798C3.05817 29.9164 0.0908551 26.9241 0.000455814 23.2604L0 6.78124C0.0875895 3.03452 3.18191 0.0172159 6.90145 0.0172159L16.3823 0.0159478C16.4442 0.00546095 16.5078 0 16.5727 0ZM15.4399 2.28186L6.90447 2.28246C4.40213 2.28246 2.32414 4.3091 2.26525 6.80842V22.9596C2.20937 25.5465 4.24809 27.6774 6.80933 27.7348H18.9873C21.5077 27.6306 23.5042 25.536 23.4862 22.9687L23.4861 10.5455L20.4508 10.547C17.6872 10.5394 15.4401 8.28627 15.4401 5.52569L15.4399 2.28186ZM16.2906 19.0403C16.9158 19.0403 17.4232 19.5477 17.4232 20.1729C17.4232 20.7981 16.9158 21.3055 16.2906 21.3055H8.1357C7.5105 21.3055 7.00308 20.7981 7.00308 20.1729C7.00308 19.5477 7.5105 19.0403 8.1357 19.0403H16.2906ZM13.2025 13.3742C13.8277 13.3742 14.3351 13.8816 14.3351 14.5068C14.3351 15.132 13.8277 15.6394 13.2025 15.6394H8.13435C7.50914 15.6394 7.00172 15.132 7.00172 14.5068C7.00172 13.8816 7.50914 13.3742 8.13435 13.3742H13.2025ZM17.7052 3.5519L17.7053 5.52569C17.7053 7.04189 18.9391 8.27721 20.4538 8.28174L22.2447 8.28023L17.7052 3.5519Z" fill="url(#paint0_linear_480_1420)"/>
<defs>
<linearGradient id="paint0_linear_480_1420" x1="2.24816" y1="1.66667" x2="30.4107" y2="21.2364" gradientUnits="userSpaceOnUse">
<stop stop-color="#F7614B"/>
<stop offset="1" stop-color="#F79448"/>
</linearGradient>
</defs>
</svg>
