<svg width="33" height="33" viewBox="0 0 33 33" fill="none" xmlns="http://www.w3.org/2000/svg">
<path d="M11.7467 21.748L21.7481 11.7466" stroke="#F7614B" stroke-width="2" stroke-linecap="round" stroke-linejoin="round"/>
<path d="M12.5802 13.4135C13.0405 13.4135 13.4136 13.0403 13.4136 12.58C13.4136 12.1197 13.0405 11.7466 12.5802 11.7466C12.1199 11.7466 11.7467 12.1197 11.7467 12.58C11.7467 13.0403 12.1199 13.4135 12.5802 13.4135Z" fill="black" stroke="#F7614B" stroke-width="2" stroke-linecap="round" stroke-linejoin="round"/>
<path d="M20.9146 21.748C21.3749 21.748 21.7481 21.3748 21.7481 20.9145C21.7481 20.4542 21.3749 20.0811 20.9146 20.0811C20.4543 20.0811 20.0812 20.4542 20.0812 20.9145C20.0812 21.3748 20.4543 21.748 20.9146 21.748Z" fill="black" stroke="#F7614B" stroke-width="2" stroke-linecap="round" stroke-linejoin="round"/>
<path d="M5.07907 8.74637C5.07907 7.77378 5.46543 6.84102 6.15316 6.15329C6.84089 5.46556 7.77365 5.07919 8.74625 5.07919H10.4131C11.3814 5.07864 12.3102 4.69514 12.9968 4.01238L14.1637 2.84555C14.5045 2.50283 14.9096 2.23087 15.3559 2.04528C15.8022 1.8597 16.2807 1.76416 16.764 1.76416C17.2474 1.76416 17.7259 1.8597 18.1722 2.04528C18.6184 2.23087 19.0236 2.50283 19.3644 2.84555L20.5312 4.01238C21.2178 4.69514 22.1466 5.07864 23.1149 5.07919H24.7818C25.7544 5.07919 26.6872 5.46556 27.3749 6.15329C28.0626 6.84102 28.449 7.77378 28.449 8.74637V10.4133C28.4496 11.3816 28.8331 12.3104 29.5158 12.997L30.6826 14.1638C31.0254 14.5046 31.2973 14.9098 31.4829 15.356C31.6685 15.8023 31.764 16.2808 31.764 16.7642C31.764 17.2475 31.6685 17.726 31.4829 18.1723C31.2973 18.6185 31.0254 19.0237 30.6826 19.3645L29.5158 20.5314C28.8331 21.218 28.4496 22.1467 28.449 23.115V24.7819C28.449 25.7545 28.0626 26.6873 27.3749 27.375C26.6872 28.0628 25.7544 28.4491 24.7818 28.4491H23.1149C22.1466 28.4497 21.2178 28.8332 20.5312 29.5159L19.3644 30.6828C19.0236 31.0255 18.6184 31.2975 18.1722 31.483C17.7259 31.6686 17.2474 31.7642 16.764 31.7642C16.2807 31.7642 15.8022 31.6686 15.3559 31.483C14.9096 31.2975 14.5045 31.0255 14.1637 30.6828L12.9968 29.5159C12.3102 28.8332 11.3814 28.4497 10.4131 28.4491H8.74625C7.77365 28.4491 6.84089 28.0628 6.15316 27.375C5.46543 26.6873 5.07907 25.7545 5.07907 24.7819V23.115C5.07852 22.1467 4.69502 21.218 4.01226 20.5314L2.84543 19.3645C2.50271 19.0237 2.23074 18.6185 2.04516 18.1723C1.85958 17.726 1.76404 17.2475 1.76404 16.7642C1.76404 16.2808 1.85958 15.8023 2.04516 15.356C2.23074 14.9098 2.50271 14.5046 2.84543 14.1638L4.01226 12.997C4.69502 12.3104 5.07852 11.3816 5.07907 10.4133V8.74637Z" stroke="#F7614B" stroke-width="2" stroke-linecap="round" stroke-linejoin="round"/>
</svg>
