<svg width="25" height="27" viewBox="0 0 25 27" fill="none" xmlns="http://www.w3.org/2000/svg">
<path fill-rule="evenodd" clip-rule="evenodd" d="M3.33375 16.6687C2.72003 16.6687 2.2225 17.1663 2.2225 17.78V23.3363C2.2225 23.95 2.72003 24.4475 3.33375 24.4475C3.94747 24.4475 4.445 23.95 4.445 23.3363V17.78C4.445 17.1663 3.94747 16.6687 3.33375 16.6687ZM3.33375 14.4462C5.17492 14.4462 6.6675 15.9388 6.6675 17.78V23.3363C6.6675 25.1775 5.17492 26.67 3.33375 26.67C1.49258 26.67 0 25.1775 0 23.3363V17.78C0 15.9388 1.49258 14.4462 3.33375 14.4462ZM12.2238 0C14.065 0 15.5575 1.49258 15.5575 3.33375V23.3363C15.5575 25.1775 14.065 26.67 12.2238 26.67C10.3825 26.67 8.89 25.1775 8.89 23.3363V3.33375C8.89 1.49258 10.3825 0 12.2238 0ZM12.2238 2.2225C11.61 2.2225 11.1125 2.72003 11.1125 3.33375V23.3363C11.1125 23.95 11.61 24.4475 12.2238 24.4475C12.8375 24.4475 13.335 23.95 13.335 23.3363V3.33375C13.335 2.72003 12.8375 2.2225 12.2238 2.2225ZM21.1137 7.77875C22.955 7.77875 24.4475 9.27133 24.4475 11.1125V23.3363C24.4475 25.1775 22.955 26.67 21.1137 26.67C19.2725 26.67 17.78 25.1775 17.78 23.3363V11.1125C17.78 9.27133 19.2725 7.77875 21.1137 7.77875ZM21.1137 10.0013C20.5 10.0013 20.0025 10.4988 20.0025 11.1125V23.3363C20.0025 23.95 20.5 24.4475 21.1137 24.4475C21.7275 24.4475 22.225 23.95 22.225 23.3363V11.1125C22.225 10.4988 21.7275 10.0013 21.1137 10.0013Z" fill="#AEAEAE"/>
</svg>
