<svg width="24" height="31" viewBox="0 0 24 31" fill="none" xmlns="http://www.w3.org/2000/svg">
<path d="M2.4 9.5H0V27.5C0 28.2956 0.252856 29.0587 0.702944 29.6213C1.15303 30.1839 1.76348 30.5 2.4 30.5H16.8V27.5H2.4V9.5Z" fill="#F7614B"/>
<path d="M21.6 0.5H7.20005C6.56353 0.5 5.95308 0.81607 5.50299 1.37868C5.05291 1.94129 4.80005 2.70435 4.80005 3.5V21.5C4.80005 22.2956 5.05291 23.0587 5.50299 23.6213C5.95308 24.1839 6.56353 24.5 7.20005 24.5H21.6C22.2366 24.5 22.847 24.1839 23.2971 23.6213C23.7472 23.0587 24 22.2956 24 21.5V3.5C24 2.70435 23.7472 1.94129 23.2971 1.37868C22.847 0.81607 22.2366 0.5 21.6 0.5ZM10.8 18.5V6.5L19.2 12.5L10.8 18.5Z" fill="#F7614B"/>
</svg>
