<svg width="10" height="9" viewBox="0 0 10 9" fill="none" xmlns="http://www.w3.org/2000/svg">
<path d="M5.9425 0.307599C5.99083 0.354685 6.1975 0.532473 6.3675 0.698084C7.43667 1.66902 9.18667 4.2019 9.72083 5.5276C9.80667 5.72893 9.98833 6.23794 10 6.5099C10 6.7705 9.94 7.01892 9.81833 7.25597C9.64833 7.55147 9.38083 7.78852 9.065 7.91841C8.84583 8.00203 8.19 8.13192 8.17833 8.13192C7.46083 8.26181 6.295 8.33325 5.00667 8.33325C3.77917 8.33325 2.66083 8.26181 1.9325 8.15546C1.92083 8.14329 1.10583 8.0134 0.826667 7.87133C0.316667 7.61073 -1.07664e-07 7.10172 -1.55286e-07 6.55699L-1.59402e-07 6.5099C0.0124996 6.15514 0.329167 5.40908 0.340833 5.40908C0.875833 4.15481 2.54 1.68039 3.64583 0.685907C3.64583 0.685907 3.93 0.405829 4.1075 0.284056C4.3625 0.09409 4.67833 -8.05971e-05 4.99417 -8.06247e-05C5.34667 -8.06555e-05 5.675 0.106267 5.9425 0.307599Z" fill="#E57373"/>
</svg>
