<svg width="39" height="34" viewBox="0 0 39 34" fill="none" xmlns="http://www.w3.org/2000/svg">
<path d="M2 7V29.5C2 30.163 2.26339 30.7989 2.73223 31.2678C3.20107 31.7366 3.83696 32 4.5 32H34.5C35.163 32 35.7989 31.7366 36.2678 31.2678C36.7366 30.7989 37 30.163 37 29.5V9.5C37 8.83696 36.7366 8.20107 36.2678 7.73223C35.7989 7.26339 35.163 7 34.5 7H8.25M2 7V4.5C2 3.83696 2.26339 3.20107 2.73223 2.73223C3.20107 2.26339 3.83696 2 4.5 2H24.5C25.163 2 25.7989 2.26339 26.2678 2.73223C26.7366 3.20107 27 3.83696 27 4.5V7H8.25M2 7H8.25M23.25 22H30.75" stroke="#F7614B" stroke-width="4"/>
</svg>
