<svg width="28" height="31" viewBox="0 0 28 31" fill="none" xmlns="http://www.w3.org/2000/svg">
<path d="M9.65606 29.0834C9.66781 29.0794 9.67572 29.0684 9.67572 29.056V24.4902C9.67572 23.3193 10.6053 22.3702 11.7519 22.3702H15.9434C16.494 22.3702 17.0221 22.5935 17.4115 22.9911C17.8008 23.3887 18.0196 23.9279 18.0196 24.4902V29.0767C18.0161 29.5635 18.203 30.0315 18.5389 30.377C18.8747 30.7225 19.3317 30.9167 19.8085 30.9167H22.6681C24.0036 30.9203 25.2857 30.381 26.2313 29.4179C27.1769 28.4549 27.7083 27.1472 27.7083 25.7835V12.717C27.7083 11.6154 27.2301 10.5705 26.4026 9.86375L16.6746 1.93055C14.9824 0.539591 12.5579 0.584501 10.9162 2.03722L1.41023 9.86375C0.54358 10.5497 0.0255971 11.5977 0 12.717V25.7701C0 28.6125 2.2566 30.9167 5.04025 30.9167H7.83459C8.81794 30.9167 9.61836 30.1122 9.63629 29.1108C9.63651 29.0984 9.64437 29.0874 9.65606 29.0834Z" fill="url(#paint0_linear_170_19890)"/>
<defs>
<linearGradient id="paint0_linear_170_19890" x1="2.41898" y1="2.58341" x2="31.241" y2="24.1332" gradientUnits="userSpaceOnUse">
<stop stop-color="#F7614B"/>
<stop offset="1" stop-color="#F79448"/>
</linearGradient>
</defs>
</svg>
