<svg width="34" height="34" viewBox="0 0 34 34" fill="none" xmlns="http://www.w3.org/2000/svg">
<path d="M19.1668 11.8317C18.3559 12.4098 17.3635 12.7499 16.2917 12.7499C13.5533 12.7499 11.3334 10.53 11.3334 7.79159C11.3334 5.05317 13.5533 2.83325 16.2917 2.83325C18.0668 2.83325 19.624 3.76601 20.4999 5.16812M8.50004 28.4567H12.198C12.6801 28.4567 13.1593 28.5141 13.6267 28.6288L17.534 29.5783C18.3818 29.7849 19.265 29.8049 20.1216 29.6386L24.4418 28.7981C25.583 28.5758 26.6328 28.0293 27.4555 27.229L30.5121 24.2557C31.3849 23.408 31.3849 22.0325 30.5121 21.1834C29.7262 20.419 28.4817 20.3329 27.5926 20.9812L24.0304 23.5801C23.5202 23.953 22.8995 24.1538 22.261 24.1538H18.8212L21.0107 24.1537C22.2448 24.1537 23.2445 23.1813 23.2445 21.9808V21.5462C23.2445 20.5494 22.5471 19.6802 21.5533 19.4392L18.1739 18.6174C17.6239 18.484 17.0607 18.4166 16.4945 18.4166C15.1277 18.4166 12.6536 19.5482 12.6536 19.5482L8.50004 21.2852M28.3334 9.20825C28.3334 11.9467 26.1135 14.1666 23.375 14.1666C20.6366 14.1666 18.4167 11.9467 18.4167 9.20825C18.4167 6.46984 20.6366 4.24992 23.375 4.24992C26.1135 4.24992 28.3334 6.46984 28.3334 9.20825ZM2.83337 20.6833L2.83337 28.8999C2.83337 29.6933 2.83337 30.09 2.98778 30.3931C3.1236 30.6596 3.34032 30.8764 3.60689 31.0122C3.90993 31.1666 4.30663 31.1666 5.10004 31.1666H6.23337C7.02678 31.1666 7.42348 31.1666 7.72653 31.0122C7.99309 30.8764 8.20981 30.6596 8.34563 30.3931C8.50004 30.09 8.50004 29.6933 8.50004 28.8999V20.6833C8.50004 19.8898 8.50004 19.4931 8.34563 19.1901C8.20981 18.9235 7.99309 18.7068 7.72653 18.571C7.42349 18.4166 7.02678 18.4166 6.23337 18.4166L5.10004 18.4166C4.30663 18.4166 3.90993 18.4166 3.60689 18.571C3.34032 18.7068 3.1236 18.9235 2.98778 19.1901C2.83337 19.4931 2.83337 19.8898 2.83337 20.6833Z" stroke="#F7614B" stroke-width="2" stroke-linecap="round" stroke-linejoin="round"/>
</svg>
