<svg width="23" height="28" viewBox="0 0 23 28" fill="none" xmlns="http://www.w3.org/2000/svg">
<path fill-rule="evenodd" clip-rule="evenodd" d="M9.08667 24.6666C9.72923 25.3824 10.5541 25.7756 11.4101 25.7756H11.4113C12.2709 25.7756 13.0996 25.3824 13.7434 24.6654C14.0882 24.2846 14.6762 24.2536 15.057 24.5972C15.4391 24.9408 15.4701 25.53 15.1265 25.9108C14.1242 27.0235 12.8056 27.6363 11.4113 27.6363H11.4088C10.0183 27.6351 8.70212 27.0223 7.70355 25.9096C7.35994 25.5288 7.39095 24.9395 7.77302 24.5972C8.15508 24.2523 8.74306 24.2833 9.08667 24.6666ZM11.4718 0.966309C16.9857 0.966309 20.6897 5.2608 20.6897 9.27122C20.6897 11.3341 21.2144 12.2086 21.7714 13.1365C22.3222 14.052 22.9461 15.0915 22.9461 17.0564C22.5132 22.0765 17.2722 22.4859 11.4718 22.4859C5.67142 22.4859 0.429214 22.0765 0.00123712 17.1358C-0.00246771 15.0915 0.621486 14.052 1.17225 13.1365L1.36669 12.8092C1.84542 11.9864 2.25394 11.0914 2.25394 9.27122C2.25394 5.2608 5.95797 0.966309 11.4718 0.966309ZM11.4718 2.82701C7.13641 2.82701 4.11464 6.2234 4.11464 9.27122C4.11464 11.8502 3.39889 13.0422 2.76625 14.0942C2.2589 14.9389 1.85823 15.6063 1.85823 17.0564C2.06539 19.3959 3.60977 20.6252 11.4718 20.6252C19.2905 20.6252 20.8832 19.3413 21.0892 16.9758C21.0854 15.6063 20.6848 14.9389 20.1774 14.0942C19.5448 13.0422 18.829 11.8502 18.829 9.27122C18.829 6.2234 15.8073 2.82701 11.4718 2.82701Z" fill="#AEAEAE"/>
</svg>
