<svg width="14" height="17" viewBox="0 0 14 17" fill="none" xmlns="http://www.w3.org/2000/svg">
<path d="M11.8995 17H1.69993C1.24908 17 0.816694 16.8209 0.497897 16.5021C0.179099 16.1833 0 15.7509 0 15.3001V1.70067C0 1.24983 0.179099 0.817442 0.497897 0.498644C0.816694 0.179847 1.24908 0.000747903 1.69993 0.000747903H7.64966C7.65728 -0.000249301 7.665 -0.000249301 7.67261 0.000747903H7.67771C7.68574 0.00325672 7.694 0.004965 7.70236 0.00584771C7.77716 0.0109475 7.85111 0.0253968 7.9225 0.0491957H7.9582C7.97389 0.0601763 7.98867 0.0723984 8.0024 0.0857441C8.09499 0.126919 8.17936 0.184511 8.25144 0.255737L13.3512 5.35551C13.4225 5.42758 13.48 5.51195 13.5212 5.60455C13.5286 5.62293 13.5351 5.64165 13.5408 5.66065L13.5493 5.68445C13.5731 5.755 13.5867 5.82894 13.5909 5.90374C13.5916 5.91221 13.5936 5.92051 13.5969 5.92839V5.93349C13.5982 5.93906 13.5991 5.94475 13.5994 5.95049V15.3001C13.5994 15.7509 13.4203 16.1833 13.1015 16.5021C12.7827 16.8209 12.3503 17 11.8995 17ZM8.86001 10.2003V14.4501H9.65898V12.7162H10.8999V12.0039H9.65898V10.9151H11.0495V10.2003H8.86001ZM5.71515 10.2003V14.4501H6.7402C6.95251 14.4606 7.16447 14.4233 7.36042 14.3409C7.55638 14.2585 7.73133 14.1332 7.87235 13.9741C8.16551 13.6001 8.31235 13.132 8.28544 12.6575V11.9691C8.30521 11.4996 8.15423 11.0388 7.86045 10.672C7.58422 10.3575 7.18048 10.1842 6.76145 10.2003H5.71515ZM2.54989 10.2003V14.4501H3.34885V12.955H3.88093C4.23621 12.9746 4.583 12.8428 4.83629 12.5929C5.07758 12.3229 5.20279 11.9687 5.18477 11.607C5.20055 11.2366 5.07542 10.874 4.83459 10.5921C4.71693 10.4617 4.57185 10.3589 4.40976 10.2911C4.24767 10.2234 4.07258 10.1924 3.89708 10.2003H2.54989ZM7.64966 1.70067V5.95049H11.8995L7.64966 1.70067ZM6.7538 13.7378H6.51411V10.9151H6.8048C6.90639 10.9091 7.00785 10.9287 7.09991 10.9721C7.19197 11.0154 7.27169 11.0812 7.33178 11.1633C7.45672 11.4208 7.51027 11.7073 7.48647 11.9929V12.7315C7.50517 13.0035 7.44652 13.2755 7.31648 13.5143C7.24785 13.5944 7.16077 13.6566 7.06275 13.6956C6.96472 13.7345 6.85869 13.749 6.7538 13.7378ZM3.89708 12.2402H3.348V10.9151H3.90473C3.9731 10.9159 4.04016 10.9339 4.09963 10.9677C4.1591 11.0014 4.20902 11.0497 4.24471 11.1081C4.33651 11.2602 4.38071 11.4353 4.37221 11.6129C4.38287 11.7782 4.33897 11.9425 4.24726 12.0804C4.20559 12.1327 4.15215 12.1745 4.0913 12.2022C4.03045 12.23 3.96391 12.243 3.89708 12.2402Z" fill="#C90101"/>
</svg>
