<svg width="24" height="30" viewBox="0 0 24 30" fill="none" xmlns="http://www.w3.org/2000/svg">
<path d="M21 30.0013H3C2.20435 30.0013 1.44129 29.6852 0.87868 29.1226C0.31607 28.56 0 27.797 0 27.0013V3.00132C0 2.20567 0.31607 1.44261 0.87868 0.879999C1.44129 0.31739 2.20435 0.00131989 3 0.00131989H13.5C13.5134 -0.000439962 13.5271 -0.000439962 13.5405 0.00131989H13.5495C13.5637 0.0057474 13.5782 0.00876215 13.593 0.0103199C13.725 0.0193199 13.8555 0.0448198 13.9815 0.0868198H14.0445C14.0722 0.106198 14.0983 0.127767 14.1225 0.15132C14.2859 0.223984 14.4348 0.325622 14.562 0.45132L23.562 9.45132C23.6877 9.5785 23.7894 9.7274 23.862 9.89082C23.8751 9.92325 23.8866 9.95629 23.8965 9.98982L23.9115 10.0318C23.9535 10.1563 23.9775 10.2868 23.985 10.4188C23.9863 10.4338 23.9898 10.4484 23.9955 10.4623V10.4713C23.9979 10.4812 23.9994 10.4912 24 10.5013V27.0013C24 27.797 23.6839 28.56 23.1213 29.1226C22.5587 29.6852 21.7956 30.0013 21 30.0013ZM15.636 18.0013V25.5013H17.046V22.4413H19.236V21.1843H17.046V19.2628H19.5V18.0013H15.636ZM10.086 18.0013V25.5013H11.895C12.2697 25.5198 12.6437 25.454 12.9896 25.3086C13.3354 25.1632 13.6441 24.942 13.893 24.6613C14.4103 24.0012 14.6695 23.1752 14.622 22.3378V21.1228C14.6569 20.2942 14.3905 19.4811 13.872 18.8338C13.3845 18.2788 12.672 17.9728 11.9325 18.0013H10.086ZM4.5 18.0013V25.5013H5.91V22.8628H6.849C7.476 22.8973 8.088 22.6648 8.535 22.2238C8.96084 21.7473 9.18179 21.1221 9.15 20.4838C9.17784 19.8302 8.95702 19.1902 8.532 18.6928C8.32437 18.4626 8.06833 18.2812 7.78227 18.1616C7.49621 18.042 7.18722 17.9873 6.8775 18.0013H4.5ZM13.5 3.00132V10.5013H21L13.5 3.00132ZM11.919 24.2443H11.496V19.2628H12.009C12.1883 19.2523 12.3673 19.2868 12.5298 19.3633C12.6923 19.4398 12.833 19.5559 12.939 19.7008C13.1595 20.1553 13.254 20.6608 13.212 21.1648V22.4683C13.245 22.9483 13.1415 23.4283 12.912 23.8498C12.7909 23.9912 12.6372 24.101 12.4642 24.1697C12.2912 24.2384 12.1041 24.264 11.919 24.2443ZM6.8775 21.6013H5.9085V19.2628H6.891C7.01166 19.2641 7.13001 19.2961 7.23496 19.3556C7.33991 19.4152 7.42801 19.5004 7.491 19.6033C7.653 19.8718 7.731 20.1808 7.716 20.4943C7.73481 20.786 7.65734 21.0759 7.4955 21.3193C7.42195 21.4116 7.32764 21.4853 7.22026 21.5343C7.11287 21.5833 6.99543 21.6063 6.8775 21.6013Z" fill="#C90101"/>
</svg>
