<svg width="26" height="30" viewBox="0 0 26 30" fill="none" xmlns="http://www.w3.org/2000/svg">
<path fill-rule="evenodd" clip-rule="evenodd" d="M16.5734 0C16.6384 0 16.7022 0.00548312 16.7642 0.0160117L16.9682 0.0172159C17.2763 0.0172159 17.5708 0.142559 17.7852 0.364553L25.4357 8.33369C25.6365 8.5436 25.7499 8.826 25.7499 9.11746V22.9959C25.774 26.7849 22.8201 29.8641 19.025 30H6.73231C3.04717 29.9208 0.0916725 26.9429 0.000552218 23.2952L0 6.78124C0.0890996 3.03452 3.18191 0.0172159 6.89994 0.0172159L16.3827 0.0160117C16.4447 0.00548312 16.5084 0 16.5734 0ZM15.4399 2.28186L6.90447 2.28246C4.40213 2.28246 2.32414 4.3091 2.26525 6.80842V22.9959C2.21088 25.5646 4.2345 27.6789 6.77912 27.7348H18.9858C21.5062 27.6441 23.5012 25.5646 23.4847 23.0034L23.4846 10.5455L20.4515 10.547C17.6864 10.5394 15.4408 8.28627 15.4408 5.52569L15.4399 2.28186ZM12.2948 10.8111C12.9201 10.8111 13.4275 11.3185 13.4275 11.9437L13.4269 18.3198L15.0313 16.7098C15.4722 16.2658 16.1896 16.2658 16.6335 16.7068C17.076 17.1478 17.0775 17.8651 16.6366 18.3091L13.1345 21.8266C13.0456 21.9246 12.9399 22.0071 12.8218 22.0693C12.8113 22.0726 12.8018 22.0774 12.7922 22.0821C12.7482 22.106 12.7018 22.1251 12.6539 22.1411C12.6493 22.1405 12.6447 22.142 12.6401 22.1435C12.5314 22.1804 12.4153 22.1993 12.2948 22.1993C12.1778 22.1993 12.0648 22.1815 11.9585 22.1484C11.9418 22.1421 11.924 22.1361 11.9064 22.1297C11.8734 22.1187 11.8418 22.1055 11.811 22.0909C11.7925 22.0814 11.7744 22.0722 11.7565 22.0626C11.7207 22.0439 11.6856 22.0223 11.6518 21.999C11.6403 21.9906 11.6289 21.9824 11.6176 21.974C11.569 21.938 11.5234 21.8979 11.4814 21.8545L7.9501 18.3091C7.50914 17.8651 7.51065 17.1478 7.95312 16.7068C8.39711 16.2658 9.11444 16.2658 9.55541 16.7098L11.1616 18.3228L11.1622 11.9437C11.1622 11.3185 11.6696 10.8111 12.2948 10.8111ZM17.7052 3.5519L17.7061 5.52569C17.7061 7.04189 18.9384 8.27721 20.4546 8.28174L22.2432 8.28023L17.7052 3.5519Z" fill="url(#paint0_linear_448_3313)"/>
<defs>
<linearGradient id="paint0_linear_448_3313" x1="2.24802" y1="1.66667" x2="30.41" y2="21.2348" gradientUnits="userSpaceOnUse">
<stop stop-color="#F7614B"/>
<stop offset="1" stop-color="#F79448"/>
</linearGradient>
</defs>
</svg>
