<svg width="25" height="31" viewBox="0 0 25 31" fill="none" xmlns="http://www.w3.org/2000/svg">
<path fill-rule="evenodd" clip-rule="evenodd" d="M24.7121 25.2635C24.7121 30.4056 17.6604 31 12.3576 31L11.9782 30.9997C8.59964 30.9915 0 30.7782 0 25.2323C0 20.1951 6.7683 19.5219 12.0308 19.4965L12.7371 19.4961C16.1154 19.5043 24.7121 19.7176 24.7121 25.2635ZM12.3576 21.8359C5.71 21.8359 2.34016 22.9779 2.34016 25.2323C2.34016 27.5069 5.71 28.6598 12.3576 28.6598C19.0037 28.6598 22.372 27.5178 22.372 25.2635C22.372 22.9888 19.0037 21.8359 12.3576 21.8359ZM12.3576 0C16.9256 0 20.6402 3.71618 20.6402 8.28418C20.6402 12.8522 16.9256 16.5668 12.3576 16.5668H12.3077C7.74906 16.5528 4.05628 12.835 4.07184 8.2795C4.07184 3.71618 7.78807 0 12.3576 0ZM12.3576 2.22784C9.01743 2.22784 6.29969 4.94399 6.29969 8.28418C6.2888 11.6135 8.98623 14.328 12.3124 14.3405L12.3576 15.4544V14.3405C15.6963 14.3405 18.4124 11.6228 18.4124 8.28418C18.4124 4.94399 15.6963 2.22784 12.3576 2.22784Z" fill="white"/>
</svg>
