<svg width="30" height="30" viewBox="0 0 30 30" fill="none" xmlns="http://www.w3.org/2000/svg">
<path fill-rule="evenodd" clip-rule="evenodd" d="M11.4508 5.90801C12.0593 6.38589 12.4093 7.09849 12.4093 7.86309C12.4093 14.0263 12.6173 15.6848 13.4677 16.3159C14.0257 16.7277 14.7903 16.7235 17.3666 16.6518C18.5641 16.6167 20.0975 16.5717 22.106 16.5717C22.9071 16.5717 23.6619 16.9146 24.1735 17.512C24.6486 18.0672 24.8566 18.7924 24.747 19.5064C23.8081 25.5853 18.6358 30 12.4487 30C5.58412 30 0 24.4159 0 17.5527C0 12.1106 4.11536 6.6684 9.17382 5.42311C9.96372 5.23055 10.8127 5.41046 11.4508 5.90801ZM9.81333 7.45408C9.76835 7.45408 9.72338 7.4597 9.6784 7.47095C5.50401 8.49838 2.10828 13.0213 2.10828 17.5527C2.10828 23.2535 6.74649 27.8917 12.4487 27.8917C17.5887 27.8917 21.8839 24.2303 22.6626 19.1845C22.6682 19.1424 22.6879 19.0201 22.5726 18.8838C22.463 18.7559 22.2887 18.68 22.106 18.68C20.1228 18.68 18.6091 18.7249 17.427 18.7587C14.5654 18.8444 13.3819 18.8767 12.2125 18.0095C10.5404 16.7708 10.3206 14.6882 10.3024 8.8442L10.301 7.86309C10.301 7.74503 10.2504 7.64664 10.1492 7.56793C10.0551 7.49344 9.93561 7.45408 9.81333 7.45408ZM25.3702 3.84232C27.8411 6.31182 29.4096 9.55716 29.3646 12.111C29.3478 13.1075 28.6239 13.9396 27.6457 14.0871C25.737 14.3753 23.5022 14.4624 21.5247 14.4624C19.6834 14.4624 18.0629 14.3879 17.131 14.3345C15.9588 14.2656 15.0256 13.331 14.9581 12.1588C14.8485 10.3007 14.6109 5.57954 14.7796 1.92801C14.826 0.866841 15.6833 0.022125 16.7319 0.00385331C19.7354 -0.0832888 22.8346 1.31099 25.3702 3.84232ZM16.9118 2.11072H16.8808C16.7262 5.65123 16.9553 10.2248 17.0621 12.0365C17.0678 12.1447 17.1465 12.2234 17.2533 12.2291C18.6982 12.312 23.6765 12.5425 27.2564 12.0154C27.2648 10.0421 25.9141 7.36596 23.8803 5.33358C21.7945 3.2506 19.3264 2.11072 16.9118 2.11072Z" fill="url(#paint0_linear_448_3292)"/>
<defs>
<linearGradient id="paint0_linear_448_3292" x1="3.55263" y1="6.31579" x2="20.5263" y2="27.2368" gradientUnits="userSpaceOnUse">
<stop stop-color="#F7614B"/>
<stop offset="1" stop-color="#F79448"/>
</linearGradient>
</defs>
</svg>
