<svg width="29" height="30" viewBox="0 0 29 30" fill="none" xmlns="http://www.w3.org/2000/svg">
<path d="M21.132 1.40625C21.132 1.03329 21.2802 0.675604 21.5439 0.411881C21.8076 0.148158 22.1653 0 22.5383 0H27.2258C27.5987 0 27.9564 0.148158 28.2201 0.411881C28.4838 0.675604 28.632 1.03329 28.632 1.40625V6.09375C28.632 6.46671 28.4838 6.8244 28.2201 7.08812C27.9564 7.35184 27.5987 7.5 27.2258 7.5C26.8528 7.5 26.4951 7.35184 26.2314 7.08812C25.9677 6.8244 25.8195 6.46671 25.8195 6.09375V4.8L17.4383 13.1812C17.1746 13.4446 16.8172 13.5925 16.4445 13.5925C16.0718 13.5925 15.7144 13.4446 15.4508 13.1812L10.8195 8.55L2.907 16.4625C2.77826 16.6007 2.62301 16.7115 2.45051 16.7883C2.27801 16.8652 2.0918 16.9065 1.90298 16.9099C1.71416 16.9132 1.52661 16.8785 1.35151 16.8077C1.1764 16.737 1.01734 16.6317 0.883805 16.4982C0.75027 16.3647 0.644999 16.2056 0.574272 16.0305C0.503545 15.8554 0.468811 15.6678 0.472143 15.479C0.475474 15.2902 0.516803 15.104 0.593663 14.9315C0.670523 14.759 0.781339 14.6037 0.919502 14.475L9.82575 5.56875C10.0894 5.3054 10.4468 5.15749 10.8195 5.15749C11.1922 5.15749 11.5496 5.3054 11.8133 5.56875L16.4445 10.2L23.832 2.8125H22.5383C22.1653 2.8125 21.8076 2.66434 21.5439 2.40062C21.2802 2.1369 21.132 1.77921 21.132 1.40625ZM1.91325 22.5C2.28621 22.5 2.6439 22.6482 2.90762 22.9119C3.17134 23.1756 3.3195 23.5333 3.3195 23.9062V28.5938C3.3195 28.9667 3.17134 29.3244 2.90762 29.5881C2.6439 29.8518 2.28621 30 1.91325 30C1.54029 30 1.18261 29.8518 0.918883 29.5881C0.65516 29.3244 0.507002 28.9667 0.507002 28.5938V23.9062C0.507002 23.5333 0.65516 23.1756 0.918883 22.9119C1.18261 22.6482 1.54029 22.5 1.91325 22.5ZM10.8195 18.2812C10.8195 17.9083 10.6713 17.5506 10.4076 17.2869C10.1439 17.0232 9.78621 16.875 9.41325 16.875C9.04029 16.875 8.68261 17.0232 8.41888 17.2869C8.15516 17.5506 8.007 17.9083 8.007 18.2812V28.5938C8.007 28.9667 8.15516 29.3244 8.41888 29.5881C8.68261 29.8518 9.04029 30 9.41325 30C9.78621 30 10.1439 29.8518 10.4076 29.5881C10.6713 29.3244 10.8195 28.9667 10.8195 28.5938V18.2812ZM16.9133 20.625C17.2862 20.625 17.6439 20.7732 17.9076 21.0369C18.1713 21.3006 18.3195 21.6583 18.3195 22.0312V28.5938C18.3195 28.9667 18.1713 29.3244 17.9076 29.5881C17.6439 29.8518 17.2862 30 16.9133 30C16.5403 30 16.1826 29.8518 15.9189 29.5881C15.6552 29.3244 15.507 28.9667 15.507 28.5938V22.0312C15.507 21.6583 15.6552 21.3006 15.9189 21.0369C16.1826 20.7732 16.5403 20.625 16.9133 20.625ZM25.8195 14.5312C25.8195 14.1583 25.6713 13.8006 25.4076 13.5369C25.1439 13.2732 24.7862 13.125 24.4133 13.125C24.0403 13.125 23.6826 13.2732 23.4189 13.5369C23.1552 13.8006 23.007 14.1583 23.007 14.5312V28.5938C23.007 28.9667 23.1552 29.3244 23.4189 29.5881C23.6826 29.8518 24.0403 30 24.4133 30C24.7862 30 25.1439 29.8518 25.4076 29.5881C25.6713 29.3244 25.8195 28.9667 25.8195 28.5938V14.5312Z" fill="#F7614B"/>
</svg>
