<svg width="26" height="26" viewBox="0 0 26 26" fill="none" xmlns="http://www.w3.org/2000/svg">
<path d="M2.886 12.1333H9.24733C10.012 12.131 10.7448 11.8263 11.2855 11.2855C11.8263 10.7448 12.131 10.012 12.1333 9.24733V2.886C12.131 2.12129 11.8263 1.38855 11.2855 0.847815C10.7448 0.30708 10.012 0.00228615 9.24733 0H2.886C2.12129 0.00228615 1.38855 0.30708 0.847815 0.847815C0.30708 1.38855 0.00228615 2.12129 0 2.886V9.24733C0.00228615 10.012 0.30708 10.7448 0.847815 11.2855C1.38855 11.8263 2.12129 12.131 2.886 12.1333ZM1.73333 2.886C1.7356 2.58099 1.85777 2.28913 2.07345 2.07345C2.28912 1.85777 2.58099 1.7356 2.886 1.73333H9.24733C9.55234 1.7356 9.84421 1.85777 10.0599 2.07345C10.2756 2.28913 10.3977 2.58099 10.4 2.886V9.24733C10.3977 9.55234 10.2756 9.84421 10.0599 10.0599C9.84421 10.2756 9.55234 10.3977 9.24733 10.4H2.886C2.58099 10.3977 2.28912 10.2756 2.07345 10.0599C1.85777 9.84421 1.7356 9.55234 1.73333 9.24733V2.886Z" fill="#AEAEAE"/>
<path d="M23.114 0H16.7527C15.988 0.00228615 15.2552 0.30708 14.7145 0.847815C14.1738 1.38855 13.869 2.12129 13.8667 2.886V9.24733C13.869 10.012 14.1738 10.7448 14.7145 11.2855C15.2552 11.8263 15.988 12.131 16.7527 12.1333H23.114C23.8787 12.131 24.6115 11.8263 25.1522 11.2855C25.693 10.7448 25.9977 10.012 26 9.24733V2.886C25.9977 2.12129 25.693 1.38855 25.1522 0.847815C24.6115 0.30708 23.8787 0.00228615 23.114 0ZM24.2667 9.24733C24.2644 9.55234 24.1423 9.84421 23.9266 10.0599C23.7109 10.2756 23.419 10.3977 23.114 10.4H16.7527C16.4477 10.3977 16.1558 10.2756 15.9401 10.0599C15.7245 9.84421 15.6023 9.55234 15.6 9.24733V2.886C15.6023 2.58099 15.7245 2.28913 15.9401 2.07345C16.1558 1.85777 16.4477 1.7356 16.7527 1.73333H23.114C23.419 1.7356 23.7109 1.85777 23.9266 2.07345C24.1423 2.28913 24.2644 2.58099 24.2667 2.886V9.24733Z" fill="#AEAEAE"/>
<path d="M2.886 25.9998H9.24733C10.012 25.9975 10.7448 25.6927 11.2855 25.152C11.8263 24.6112 12.131 23.8785 12.1333 23.1138V16.7525C12.131 15.9877 11.8263 15.255 11.2855 14.7143C10.7448 14.1735 10.012 13.8687 9.24733 13.8665H2.886C2.12129 13.8687 1.38855 14.1735 0.847815 14.7143C0.30708 15.255 0.00228615 15.9877 0 16.7525V23.1138C0.00228615 23.8785 0.30708 24.6112 0.847815 25.152C1.38855 25.6927 2.12129 25.9975 2.886 25.9998ZM1.73333 16.7525C1.7356 16.4474 1.85777 16.1556 2.07345 15.9399C2.28912 15.7242 2.58099 15.6021 2.886 15.5998H9.24733C9.55234 15.6021 9.84421 15.7242 10.0599 15.9399C10.2756 16.1556 10.3977 16.4474 10.4 16.7525V23.1138C10.3977 23.4188 10.2756 23.7107 10.0599 23.9263C9.84421 24.142 9.55234 24.2642 9.24733 24.2665H2.886C2.58099 24.2642 2.28912 24.142 2.07345 23.9263C1.85777 23.7107 1.7356 23.4188 1.73333 23.1138V16.7525Z" fill="#AEAEAE"/>
<path d="M19.9334 13.8665C18.7335 13.8665 17.5606 14.2223 16.5629 14.8889C15.5653 15.5555 14.7877 16.503 14.3285 17.6115C13.8693 18.72 13.7492 19.9399 13.9833 21.1167C14.2174 22.2935 14.7951 23.3745 15.6436 24.2229C16.492 25.0713 17.573 25.6491 18.7498 25.8832C19.9266 26.1173 21.1464 25.9972 22.255 25.538C23.3635 25.0788 24.311 24.3012 24.9776 23.3036C25.6442 22.3059 26 21.133 26 19.9331C26 18.3241 25.3609 16.7811 24.2231 15.6433C23.0854 14.5056 21.5423 13.8665 19.9334 13.8665ZM19.9334 24.2665C19.0763 24.2665 18.2385 24.0123 17.5259 23.5362C16.8133 23.06 16.2579 22.3832 15.9299 21.5914C15.6019 20.7996 15.5161 19.9283 15.6833 19.0877C15.8505 18.2471 16.2632 17.475 16.8692 16.869C17.4753 16.263 18.2474 15.8503 19.088 15.6831C19.9286 15.5158 20.7998 15.6017 21.5917 15.9296C22.3835 16.2576 23.0603 16.813 23.5364 17.5257C24.0126 18.2383 24.2667 19.0761 24.2667 19.9331C24.2667 21.0824 23.8102 22.1846 22.9975 22.9972C22.1848 23.8099 21.0826 24.2665 19.9334 24.2665Z" fill="#AEAEAE"/>
</svg>
