<svg width="25" height="24" viewBox="0 0 25 24" fill="none" xmlns="http://www.w3.org/2000/svg">
<path d="M9.38932 13.51L16.2193 17.49M16.2093 6.51L9.38932 10.49M21.7993 5C21.7993 6.65685 20.4562 8 18.7993 8C17.1425 8 15.7993 6.65685 15.7993 5C15.7993 3.34315 17.1425 2 18.7993 2C20.4562 2 21.7993 3.34315 21.7993 5ZM9.79932 12C9.79932 13.6569 8.45617 15 6.79932 15C5.14246 15 3.79932 13.6569 3.79932 12C3.79932 10.3431 5.14246 9 6.79932 9C8.45617 9 9.79932 10.3431 9.79932 12ZM21.7993 19C21.7993 20.6569 20.4562 22 18.7993 22C17.1425 22 15.7993 20.6569 15.7993 19C15.7993 17.3431 17.1425 16 18.7993 16C20.4562 16 21.7993 17.3431 21.7993 19Z" stroke="#F7614B" stroke-width="2" stroke-linecap="round" stroke-linejoin="round"/>
</svg>
