<svg width="28" height="28" viewBox="0 0 28 28" fill="none" xmlns="http://www.w3.org/2000/svg">
<path d="M14 17.5C10.3016 17.5 7.01263 19.2857 4.91869 22.057C4.46802 22.6534 4.24268 22.9516 4.25005 23.3547C4.25575 23.666 4.45128 24.0589 4.69629 24.2511C5.01341 24.5 5.45288 24.5 6.3318 24.5H21.6683C22.5472 24.5 22.9866 24.5 23.3038 24.2511C23.5488 24.0589 23.7443 23.666 23.75 23.3547C23.7574 22.9516 23.532 22.6534 23.0814 22.057C20.9874 19.2857 17.6985 17.5 14 17.5Z" stroke="#AEAEAE" stroke-width="2" stroke-linecap="round" stroke-linejoin="round"/>
<path d="M14 14C16.8995 14 19.25 11.6495 19.25 8.75C19.25 5.8505 16.8995 3.5 14 3.5C11.1005 3.5 8.75003 5.8505 8.75003 8.75C8.75003 11.6495 11.1005 14 14 14Z" stroke="#AEAEAE" stroke-width="2" stroke-linecap="round" stroke-linejoin="round"/>
</svg>
