<svg width="20" height="19" viewBox="0 0 20 19" fill="none" xmlns="http://www.w3.org/2000/svg">
<path fill-rule="evenodd" clip-rule="evenodd" d="M14.1885 0C17.3932 0 19.9999 2.60672 19.9999 5.8123V12.7671C19.9999 15.9717 17.3932 18.5794 14.1885 18.5794H5.81218C2.60756 18.5794 -0.00012207 15.9717 -0.00012207 12.7671V5.8123C-0.00012207 2.60672 2.60756 0 5.81218 0H14.1885ZM14.1885 1.45356H5.81218C3.40896 1.45356 1.45344 3.40908 1.45344 5.8123V12.7671C1.45344 15.1703 3.40896 17.1258 5.81218 17.1258H14.1885C16.5918 17.1258 18.5463 15.1703 18.5463 12.7671V12.4958L15.3505 12.4963C13.5123 12.4963 12.0161 11.0011 12.0151 9.16382C12.0151 7.32458 13.5113 5.82838 15.3505 5.82741L18.5463 5.82683V5.8123C18.5463 3.40908 16.5918 1.45356 14.1885 1.45356ZM18.5463 7.28039L15.3505 7.28097C14.3127 7.28194 13.4686 8.12598 13.4686 9.16285C13.4686 10.1988 14.3137 11.0428 15.3505 11.0428L18.5463 11.0422V7.28039ZM15.794 8.37599C16.1951 8.37599 16.5207 8.70159 16.5207 9.10277C16.5207 9.50395 16.1951 9.82955 15.794 9.82955H15.4916C15.0904 9.82955 14.7648 9.50395 14.7648 9.10277C14.7648 8.70159 15.0904 8.37599 15.4916 8.37599H15.794ZM10.3541 4.3976C10.7552 4.3976 11.0808 4.72319 11.0808 5.12438C11.0808 5.52556 10.7552 5.85116 10.3541 5.85116H5.12222C4.72104 5.85116 4.39544 5.52556 4.39544 5.12438C4.39544 4.72319 4.72104 4.3976 5.12222 4.3976H10.3541Z" fill="white"/>
</svg>
